<?xml version="1.0" encoding="UTF-8"?>
<svg version="1.1" viewBox="0 0 2048 2048" width="1280" height="1280" xmlns="http://www.w3.org/2000/svg" fill="#655a7c">
<path transform="translate(550)" d="m0 0h80l-3 2-6 3 15 8 12 8 10 9 7 7 9 13 6 10 6 15 3 12 2 19v125l44-1h177l1-7 2-128 2-13 5-14 11-20 11-13 7-7 10-8 16-11 14-9h67v3l22 12 10 8 12 11 10 13 8 13 7 16 3 12 1 11v131h211l12-1 1-118 2-24 4-15 8-17 8-12 8-10 13-12 15-10 16-10 1-1h80l-2 2-5 2v2l13 7 17 12 12 12 9 13 6 10 6 15 4 18 1 12 1 124-1 2 25-1h86l36 1 26 3 15 4 17 9 11 9 9 9 11 15 8 16 4 10 3 15 1 13v1202l-1 60-2 6-8 5-13 4h-15l-13-5-5-6-3-10-1-10-1-1241-1-17-3-10-4-6v-2l-4-2-10-6-5-2-18-2-144-2v24l-1 26-3 23-4 13-8 16-12 17-2 3h-2l-2 4h-2l-2 4-14 9-19 9-19 5-10 1h-20l-18-3-15-5-12-6-11-8-7-6-9-11-7-10-8-16-6-16-3-19-1-36 1-17h-225v45l-2 19-3 15-6 15-9 15-12 14-11 10-13 8-14 6-17 5-9 1h-28l-15-3-12-4-14-7-14-11-8-8-9-13-9-16-6-15-4-19-1-10v-47h-70l-152-1-1 4v16l-2 35-3 21-4 12-8 15-8 12-8 10-10 9-18 10-15 6-12 3-8 1h-27l-16-3-15-5-13-7-14-11-10-11-10-15-7-15-5-15-3-20v-51l-140 1-18 2-13 4-7 6h-2l-2 4-5 9-3 10-1 11-1 97-1 49-2 17-2 6-4 3-11 3-6 1h-11l-10-2-8-4-3-4-2-11-1-36v-110l1-20 3-19 5-14 8-15 7-9 9-11 14-11 13-8 13-5 14-3 8-1 26-1h130v-30l1-93 2-19 5-19 11-21 10-13 11-11 8-6 14-9zm66 2m880 0m-878 1m880 0m-922 57-12 3-9 6-9 9-5 8-3 11-1 7-1 32-1 118v66l1 20 3 14 4 10 9 10 10 6 8 3 6 1h18l10-3 10-7 8-8 4-9 2-12 1-14 1-37v-188l-2-10-6-15-6-8-8-7-9-4-13-2zm879 0-13 4-10 8-9 10-4 11-2 11-1 33-1 116v59l1 27 3 15 5 12 4 5 11 8 11 4 12 2h8l12-3 10-6 6-5 6-8 3-11 2-20 1-29v-198l-3-13-5-12-9-10-9-6-9-3-7-1zm-441 1-10 3-9 6-7 7-7 11-4 16-1 134v94l3 19 4 11 7 9 9 8 12 4 13 2 12-1 9-4 6-4 5-5 7-10 5-15 2-30v-87l-1-129-4-13-6-10-7-8-9-5-9-3z"/>
<path transform="translate(250,599)" d="m0 0 9 1 13 4 8 5 3 6 1 1330 2 12 4 9 7 8 10 6 13 4 13 2 15 1 32 1 100 1h959l154-1 82-1 37-1 18-2 11-4 8-6 9-12 2-14 1-20 1-188 1-31 4-6 6-4 9-2h13l15 2 10 5 2 2 1 4v214l-1 25-2 18-6 18-10 18-9 12-10 9-17 10-28 14h-1436v-2l-5-1-23-13-12-8-13-11-12-16-8-18-5-19-2-21-1-28-1-69v-793l1-344 1-93 3-5 8-4z"/>
<path transform="translate(918,1505)" d="m0 0h576l32 1 15 2 14 4 13 7 11 9 7 6 10 13 8 14 6 15 2 10v27l-4 16-9 19-8 12-11 12-8 6-16 8-19 5-24 2-34 1h-571l-27-1-18-2-18-6-15-9-16-16-12-19-6-14-4-17v-21l5-19 7-16 9-14 8-9 14-11 17-9 11-3 17-2zm-24 61-22 1-6 3-7 8-5 11-1 5v14l5 12 7 8 11 4 3 1h602l39-1 14-2 6-3 4-5 5-11 1-4v-17l-2-9-5-8-5-4-12-2-24-1z"/>
<path transform="translate(1213,1108)" d="m0 0h259l44 1 17 1 15 3 12 5 13 8 10 8 11 13 8 13 7 16 3 14v25l-3 14-5 13-9 15-8 10-12 12-14 8-10 4-17 3-36 2h-599l-23-1-18-2-16-6-11-7-9-8-9-11-7-10-8-15-5-17-1-5v-23l5-18 7-16 6-9 9-11 7-7 15-11 16-7 11-2 16-1zm-319 60-15 1-10 3-8 7-7 14-1 4v14l4 9 6 9 10 6 9 2h579l58-1 15-3 6-3 6-7 4-14v-14l-2-11-3-5-7-6-8-3-15-1-137-1z"/>
<path transform="translate(1343,711)" d="m0 0h122l47 1 17 1 17 3 14 5 10 6 9 7 11 11 10 15 7 14 4 14 1 6v23l-3 15-7 16-6 10-7 9-12 13-15 10-16 5-23 3-23 1-549 1-71-1-20-2-15-5-11-7-10-9-8-8-10-14-6-10-6-19-2-9v-21l4-16 6-15 8-14 11-12 5-5 14-10 13-6 18-4 14-1zm-271 60-187 1-14 2-6 3-6 7-5 12-1 4v14l5 12 6 7 9 5 16 2h461l170-1 12-2 8-4 5-4 3-5 2-10v-19l-3-11-5-6-9-4-15-2-151-1z"/>
<path transform="translate(730,600)" d="m0 0 10 2 14 7 9 7 5 8v9l-4 10-10 14-10 13-14 17-11 14-12 14-11 14-13 15-8 10-9 10-9 11-12 14-11 13-11 14-14 17-11 13-7 8-11 12-9 10-12 9-5 3h-7l-8-4-10-8-10-12-10-15-13-21-13-22-15-26-5-12-1-11 4-9 9-8 10-5 4-1h11l10 4 6 7 15 23 9 15 7 14 3 4v2l9-6 9-12 5-6h2l2-4 8-10 10-12 18-22 12-14 9-11 2-3h2l2-4 6-8h2l2-4 8-9 7-9 13-16 9-11 10-12 9-11 11-12 9-6z"/>
<path transform="translate(734,995)" d="m0 0 9 3 11 8 8 6 5 7 1 10-4 10-12 16-8 11-13 16-9 11-7 8-9 11-13 16-1 2h-2l-2 4-27 33-13 15-11 13-7 8-12 14-11 14-10 12-9 11-5 6h-2l-2 4-13 13-12 6h-8l-12-6-8-8-11-15-16-25-16-27-14-25-5-10-2-7v-8l4-8 7-7 14-7 3-1h7l12 5 7 8 11 16 11 18 10 19 2 4 7-4 7-8 7-9 9-11 11-13 8-10 11-13 9-11 13-15 9-11 5-7h2l2-4 13-16 11-13 11-14 10-12 1-2h2l2-4 11-12 5-5 8-6 6-3z"/>
<path transform="translate(730,1394)" d="m0 0h7l8 4 10 7 8 6 5 9-1 10-7 13-11 14-10 14-13 16-2 3h-2l-2 4-10 12-9 11-11 13-9 11-11 14-13 15-9 11-2 3h-2l-2 4-13 15-9 11-12 14-18 22-9 10-5 6h-2v2h-2l-2 4h-2v2l-9 5-5 2h-9l-9-4-10-9-11-15-12-19-16-26-13-23-6-10-5-12-1-4v-7l3-7 7-8 8-5 8-4h11l11 6 7 8 12 18 10 16 10 19v2l6-2 5-5 8-10 9-11 1-2h2l2-4 7-8 6-8 9-10 11-14 7-8h2l2-4 9-11 13-16 11-13 9-11 13-16 18-22 7-7 7-9 10-8z"/>
<path transform="translate(295,2047)" d="m0 0h6v1h-6z"/>
<path transform="translate(1064)" d="m0 0h6v1h-6z"/>
<path transform="translate(292,2046)" d="m0 0h2v2h-2z"/>
<path transform="translate(1059)" d="m0 0"/>
<path transform="translate(1742,2047)" d="m0 0"/>
<path transform="translate(302,2047)" d="m0 0"/>
<path transform="translate(546,1)" d="m0 0"/>
<path transform="translate(1427)" d="m0 0"/>
<path transform="translate(547)" d="m0 0"/>
</svg>
